# xmcd
#
# Track frame offsets:
#	150
#	12460
#	26492
#	35945
#
# Disc length: 609 seconds
#
# Revision: 0
# Processed by: cddbd v1.5.2PL0 Copyright (c) Steve Scherf et al.
# Submitted via: dBpowerAMP V4.0
#
DISCID=2e025f04
DTITLE=Boot50 - Anabolic
DYEAR=2004
DGENRE=Rock
TTITLE0=Anabolic
TTITLE1=Serial Killer
TTITLE2=Theme From "Area 69"
TTITLE3=Faceless (Acoustic)
EXTD=
EXTT0=
EXTT1=
EXTT2=
EXTT3=
PLAYORDER=
